<?xml version="1.0" encoding="UTF-8"?>
<svg xmlns="http://www.w3.org/2000/svg" viewBox="0 0 488.7 133.57">
  <defs>
    <style>
      .cls-1 {
        fill: #f3f2f1;
      }

      .cls-2 {
        fill: #f6f4d0;
      }

      .cls-3 {
        fill: #f2f1f1;
      }

      .cls-4 {
        fill: #696969;
      }

      .cls-5 {
        fill: #6a6458;
      }

      .cls-6 {
        fill: #e6e5df;
      }

      .cls-7 {
        fill: #e3e2d8;
      }

      .cls-8 {
        fill: #ede9a8;
      }

      .cls-9 {
        fill: #fff;
      }

      .cls-10 {
        fill: #f1f1f1;
      }

      .cls-11 {
        fill: #e5e4e5;
      }

      .cls-12 {
        fill: #fdfdfd;
      }

      .cls-13 {
        fill: #7f7f7f;
      }

      .cls-14 {
        fill: #686868;
      }

      .cls-15 {
        fill: #8b856d;
      }

      .cls-16 {
        fill: #929393;
      }

      .cls-17 {
        fill: #847f76;
      }

      .cls-18 {
        fill: #b5b298;
      }

      .cls-19 {
        fill: #b8b5b0;
      }

      .cls-20 {
        fill: #9d9d95;
      }

      .cls-21 {
        fill: #8b8975;
      }

      .cls-22 {
        fill: #c2b702;
      }

      .cls-23 {
        fill: #c2c2c2;
      }

      .cls-24 {
        fill: #b3b7b9;
      }

      .cls-25 {
        fill: #c1c2c5;
      }

      .cls-26 {
        fill: #c1b602;
      }

      .cls-27 {
        fill: #666;
      }

      .cls-28 {
        fill: #323232;
      }

      .cls-29 {
        fill: #cfc303;
      }

      .cls-30 {
        fill: #acab9f;
      }

      .cls-31 {
        fill: #bfb50a;
      }

      .cls-32 {
        fill: #bbb002;
      }

      .cls-33 {
        fill: #b0aeaa;
      }

      .cls-34 {
        fill: #d7ca02;
      }

      .cls-35 {
        fill: #d7cb02;
      }

      .cls-36 {
        fill: #d7d292;
      }

      .cls-37 {
        fill: #b2a802;
      }

      .cls-38 {
        fill: #c0b502;
      }

      .cls-39 {
        fill: #c0b509;
      }

      .cls-40 {
        fill: #beb402;
      }

      .cls-41 {
        fill: #bfbfbf;
      }

      .cls-42 {
        fill: #bfbfc1;
      }

      .cls-43 {
        fill: #bfb402;
      }

      .cls-44 {
        fill: #bfb40a;
      }

      .cls-45 {
        fill: #c6ba02;
      }

      .cls-46 {
        fill: #cacace;
      }

      .cls-47 {
        fill: #c9c6b7;
      }

      .cls-48 {
        fill: #c9c9c9;
      }

      .cls-49 {
        fill: #c9c8c6;
      }

      .cls-50 {
        fill: #c7c8ca;
      }

      .cls-51 {
        fill: #d2d1d3;
      }

      .cls-52 {
        fill: #d2c602;
      }

      .cls-53 {
        fill: #d1d1d1;
      }

      .cls-54 {
        fill: #c3c4c8;
      }

      .cls-55 {
        fill: #c3b802;
      }

      .cls-56 {
        fill: #c4b902;
      }

      .cls-57 {
        fill: #d6d6d7;
      }

      .cls-58 {
        fill: #d4d6d9;
      }

      .cls-59 {
        fill: #d8cb02;
      }

      .cls-60 {
        fill: #c5ba02;
      }

      .cls-61 {
        fill: #e1dfd3;
      }

      .cls-62 {
        fill: #c8c6c2;
      }

      .cls-63 {
        fill: #c8c8bd;
      }

      .cls-64 {
        fill: #c8c8c8;
      }

      .cls-65 {
        fill: #dfded9;
      }

      .cls-66 {
        fill: #d6c902;
      }

      .cls-67 {
        fill: #d5d3c3;
      }

      .cls-68 {
        fill: #d5c901;
      }

      .cls-69 {
        fill: #373736;
      }

      .cls-70 {
        fill: #3f3f3f;
      }

      .cls-71 {
        fill: #1a1a1a;
      }

      .cls-72 {
        fill: #9b9b9b;
      }

      .cls-73 {
        fill: #959595;
      }

      .cls-74 {
        fill: #636363;
      }

      .cls-75 {
        fill: #626262;
      }

      .cls-76 {
        fill: #494949;
      }

      .cls-77 {
        fill: #7a7979;
      }

      .cls-78 {
        fill: #827c70;
      }

      .cls-79 {
        fill: #757575;
      }

      .cls-80 {
        fill: #fcfcfc;
        font-family: HelveticaNeue, 'Helvetica Neue';
        font-size: 21.01px;
      }
    </style>
  </defs>
  <g id="Layer_1_Image" data-name="Layer 1 Image">
    <path class="cls-9" d="M179.88,.25c0,15.77,0,31.54,0,47.3,0,3.66-.23,7.29-1.05,10.87-1.81,7.9-6.7,12.9-14.35,15.3-4.32,1.36-8.76,1.66-13.25,1.56-3.57-.08-7.09-.5-10.51-1.57-4.81-1.5-8.81-4.12-11.58-8.42-1.67-2.58-2.55-5.45-3.1-8.44-.55-2.98-.72-5.99-.72-9.02,0-15.48,0-30.97,0-46.45,0-.38-.02-.75-.02-1.13,4.85,0,9.7,0,14.55,0,.42,.52,.28,1.14,.28,1.73,0,16.17,0,32.35,.02,48.52,0,2.73,.45,5.38,1.77,7.84,.82,1.52,1.96,2.75,3.51,3.45,4.36,2,8.88,1.97,13.34,.47,2.8-.94,4.52-3.11,5.4-5.92,.57-1.81,.85-3.67,.9-5.57,.42-16.26,.07-32.53,.19-48.8,0-.59-.13-1.21,.28-1.73h14.36Z"/>
    <path class="cls-9" d="M53.11,.25c-9.13,10.66-18.25,21.32-27.38,31.98-.47,.55-.47,.56-.08,1.18,2.31,3.67,4.58,7.38,6.95,11.01,1.15,1.76,2.5,3.4,3.76,5.08,5.84,7.77,11.68,15.54,17.52,23.31,.18,.24,.43,.45,.52,.86h-.88c-5.45,0-10.89-.01-16.34,.02-.64,0-1.01-.2-1.38-.72-6.52-9.03-13.05-18.04-19.59-27.06-.23-.32-.48-.64-.89-.94v.7c0,.88,.05,1.76,0,2.64-.51,8.25-.19,16.51-.28,24.76,0,.15,.02,.32-.09,.45-.23,.14-.49,.08-.74,.09-4.09,0-8.19-.02-12.28,.02-.72,0-.89-.2-.89-.9,.02-23.91,.01-47.83,.02-71.74,0-.25-.06-.51,.09-.74H15.13c.31,.34,.25,.76,.25,1.17,0,7.48,0,14.96,0,22.55,1.74-2.12,3.37-4.21,5.04-6.28,4.46-5.53,8.92-11.06,13.36-16.6,.28-.35,.61-.63,1-.84,6.11,0,12.22,0,18.33,0Z"/>
    <path class="cls-9" d="M488.6,14.22c-.34,.01-.69,.04-1.03,.04-5.98,0-11.96,0-17.95,0-.22,0-.44,0-.66,0-.29,0-.39,.14-.38,.41,0,.22,0,.44,0,.66,0,17.28-.02,34.56,.02,51.83,0,1.98,.15,3.96,.09,5.94-.14,4.88-.64,9.71-2.01,14.43-.4,1.36-.89,2.68-1.47,3.98-1.94,4.4-5.22,7.31-9.76,8.84-2.09,.7-4.23,1.12-6.43,1.36-2.36,.26-4.71,.22-7.06,.11-.53-.02-1.05-.14-1.58-.21,.03-.48,.44-.58,.76-.75,.78-.41,1.57-.81,2.36-1.18,.56-.26,.62-.53,.17-.97-.66-.63-1.29-1.3-1.94-1.93-.53-.51-.63-.98-.05-1.52,.53-.5,.89-1.14,1.44-1.62,.49-.43,.37-.72-.19-.95-.64-.27-1.28-.53-1.89-.85-.6-.32-.67-.7-.2-1.19,.59-.61,1.19-1.21,1.8-1.81,.41-.4,.33-.61-.21-.75-.52-.13-1.02-.32-1.53-.5-.64-.23-.66-.47-.1-.89,.42-.31,.91-.53,1.29-.91-.55-.57-1.5-.15-1.88-.92,1.8-1.08,3.62-2.14,5.41-3.25,1.87-1.17,3.64-2.47,5.34-3.88,2.18-1.81,3.07-4.22,3.34-6.94,.03-.28,0-.57,0-.85,0-18.18,0-36.37,0-54.55,0-1.35,.13-1.14-1.16-1.14-6.01,0-12.02,0-18.03,0-.19,0-.38-.02-.57,0-.5,.07-.63-.15-.63-.63,.02-4.31,0-8.62,0-12.93,0-.16,0-.32,.09-.45h54.6c.14,.2,.09,.42,.09,.64,0,4.23,0,8.46,0,12.69,0,.22,.05,.44-.09,.64Z"/>
    <path class="cls-9" d="M337.08,.25c-.01,1.82-.03,3.65-.04,5.47,0,2.52,0,5.03,0,7.55,0,1.07,.16,.99-1.02,.99-6.07,0-12.15,0-18.22,0-1.16,0-1.07-.15-1.07,1.05,0,19.07,0,38.13,0,57.2,0,1.36,.15,1.17-1.13,1.17-4.03,0-8.06,0-12.09,0-.22,0-.44,0-.66,0-.29,.01-.39-.14-.38-.41,0-.25,0-.5,0-.76,0-19.03,0-38.07,0-57.1,0-1.33,.15-1.15-1.15-1.15-6.04,0-12.09,0-18.13,0-.22,0-.44-.01-.66,0-.31,.02-.49-.08-.45-.42,0-.03,0-.06,0-.09,0-4.5,.02-9,.03-13.49h54.98Z"/>
    <path class="cls-41" d="M322.15,133.57c0-.06,0-.13,0-.19,.58-.41,1.19-.31,1.81-.1,.11,.08,.14,.17,.08,.29h-1.89Z"/>
    <path class="cls-10" d="M324.04,133.57v-.19c.49-.36,.99-.35,1.5-.03,0,.07,0,.15,.01,.22h-1.51Z"/>
    <path class="cls-53" d="M229.58,.42c-.25,0-.5,0-.75-.01-.07-.03-.09-.06-.08-.1,.02-.04,.04-.06,.06-.06h.76c0,.06,0,.11,0,.17Z"/>
    <path class="cls-69" d="M228.07,.43c-.27,0-.56,.09-.77-.18h.76c.06,.04,.08,.07,.06,.11-.02,.04-.04,.06-.05,.06Z"/>
    <path class="cls-73" d="M228.82,.25c0,.05,.01,.1,.01,.15-.13,0-.25,0-.38,0-.07-.03-.09-.07-.07-.1,.02-.04,.04-.06,.06-.06h.38Z"/>
    <path class="cls-4" d="M228.44,.25c0,.05,0,.11,.01,.16-.13,0-.25,0-.38,.01-.01-.06-.01-.12-.01-.18h.38Z"/>
    <path class="cls-9" d="M62.94,.45c10.29,0,20.59,0,30.88,0,6.26,0,12.53,0,18.79,0,.01,1.48,.03,2.96,.04,4.43,0,2.86,0,5.73,0,8.59,0,1.03,.07,.92-.9,.92-7.56,0-15.11,0-22.67,0-3.84,0-7.68,0-11.52,0-.91,0-.82-.01-.82,.82,0,5,0,10.01,0,15.01,0,.9-.1,.84,.89,.84,5.6,0,11.21,0,16.81,0,.19,0,.38,0,.57,0,.71,.01,.72,.01,.72,.73,0,4.03,0,8.06,0,12.08,0,.86,0,.87-.88,.87-5.57,0-11.15,0-16.72,0-.19,0-.38,0-.57,0-.81,0-.82,0-.82,.82,0,5.1,0,10.2,0,15.29,0,.92-.1,.89,.95,.89,8.69,0,17.38,0,26.07,0,3.24,0,6.49,0,9.73,0,.82,0,.83,0,.83,.81,0,3.43,0,6.86,0,10.29,0,.82,0,.83-.81,.83-16.59,0-33.19,0-49.78,0-.9,0-.82,.03-.82-.91,0-10.83,0-21.65,0-32.48,0-12.93,0-25.87,0-38.8,0-.35,.02-.69,.03-1.04Z"/>
    <path class="cls-50" d="M325.54,133.35c-.5,.01-1,.02-1.5,.03-.63,0-1.26,0-1.89,0-.39-.04-.81,.07-1.31-.2,2.09-1.22,4.07-2.38,6.05-3.54,1.86-1.42,3.96-2.44,5.99-3.57,6.24-3.46,12.51-6.88,18.84-10.17,5.98-3.1,11.96-6.18,18.05-9.05,6.77-3.19,13.55-6.37,20.61-8.9,4.61-1.65,9.34-2.75,14.23-3.18,2.61-.23,5.22-.34,7.79,.22,1.14,.25,.84-.71,1.2-1.12,.69,.4,.42,1.13,.57,1.71-.4,.03-.38,.33-.39,.62-.07,1.63-.15,3.27-.24,4.9-.05,1.03-.12,2.05-.19,3.09-.36,.04-.48-.22-.65-.38-2.38-2.22-5.23-3.41-8.43-3.86-3.12-.44-6.13,.08-9.08,1.07-4.03,1.35-7.89,3.13-11.7,5-8.27,4.07-16.28,8.63-24.27,13.22-4.33,2.49-8.58,5.14-13.02,7.45-5.3,2.75-10.82,4.88-16.69,6.05-1.16,.23-2.34,.47-3.54,.48-.15,0-.3,.08-.44,.13Z"/>
    <path class="cls-12" d="M413.61,93.91c-.15,.46,.08,.94-.1,1.45-.95-.12-1.89-.26-2.85-.36-1.85-.19-3.7-.17-5.55,0-1.88,.17-3.74,.4-5.59,.75-3.5,.66-6.91,1.64-10.24,2.87-5.76,2.13-11.34,4.68-16.89,7.28-9.15,4.29-18.12,8.91-27.03,13.66-5.97,3.19-11.9,6.43-17.79,9.77-.22,.12-.45,.21-.68,.31,.16-.4,.5-.62,.84-.85,2.43-1.61,4.92-3.12,7.41-4.64,2.75-1.69,5.48-3.41,8.24-5.09,2.35-1.44,4.72-2.85,7.09-4.26,2.66-1.59,5.33-3.19,8.01-4.74,2.41-1.4,4.85-2.76,7.28-4.13,2.51-1.42,5.03-2.83,7.54-4.24,.08-.05,.17-.09,.25-.13,2.25-1.03,4.35-2.36,6.62-3.37,1.12-.5,2.22-1.11,3.32-1.68,4.76-2.46,9.77-4.24,14.99-5.43,3.17-.72,6.34-1.42,9.55-1.92,1.11-.17,2.22-.33,3.32-.56,.57-.12,1.09-.46,1.71-.32-.36,.36-.48,.7-.23,1.25,.49,1.08,.77,2.23,.91,3.41,.04,.34,.14,.68-.14,.97Z"/>
    <path class="cls-34" d="M440.21,84.87c.75,.38,1.63,.38,2.49,.76-.68,.65-1.52,1-2.27,1.62,1.08,.31,2.06,.6,3.18,.92-.98,1.15-2.11,2.03-3.12,3.17,1.21,.56,2.33,1.07,3.54,1.63-.81,.91-1.53,1.77-2.31,2.57-.36,.37-.31,.57,.03,.91,.93,.93,1.83,1.89,2.78,2.88-1.35,.89-2.85,1.39-4.14,2.29-1.42-.23-2.84-.47-4.26-.68-2.76-.41-5.48-1.01-8.2-1.61-.91-.2-1.78-.58-2.74-.54-.39-.3-.19-.7-.15-1.04,.4-3.15,.3-6.25-.97-9.22-.11-.26-.21-.53-.11-.82,4.82-.51,9.64-1.06,14.35-2.29,.63-.17,1.26-.36,1.89-.54Z"/>
    <path class="cls-9" d="M423.98,87.7c.91,1.85,1.48,3.78,1.55,5.85,.06,1.75-.04,3.5-.32,5.23-.34,.07-.59-.16-.87-.28-3.26-1.42-6.64-2.39-10.16-2.91-.24-.14-.41-.29-.41-.63,0-.35,.07-.73-.16-1.06-.1-1.88-.67-3.64-1.42-5.35,.24-.3,.62-.09,.87-.28,1.95,.04,3.89-.2,5.83-.26,1.69-.06,3.39-.2,5.08-.31Z"/>
    <path class="cls-9" d="M249.2,50.33c-1.06-5.88-4.03-10.51-9.61-13.17-.16-.08-.39-.07-.4-.36,.17-.11,.35-.23,.53-.35,.18-.12,.37-.24,.55-.37,3.08-2.06,5.17-4.86,6.12-8.44,1.36-5.12,1.27-10.22-.45-15.24-1.63-4.73-4.74-8.17-9.34-10.2-2.23-.99-4.6-1.48-7.01-1.78-.22-.12-.46-.05-.69-.07-.14,0-.28,0-.42,0-.14,0-.27,0-.41,0-.25-.04-.53,.09-.76-.1h-33.63c.13,.37,.07,.75,.07,1.12,0,23.66,0,47.33,0,70.99,0,.22,0,.44,0,.66,.02,.64,.02,.64,.71,.66,.09,0,.19,0,.28,0,9.89,0,19.77,0,29.66,0,3.22,0,6.41-.27,9.57-.91,5.32-1.08,9.5-3.85,12.45-8.43,2.78-4.3,3.68-9.03,2.78-14ZM207.31,14.48c0-.65,.01-.66,.69-.66,5.1,0,10.2-.01,15.29,.02,1.99,.01,3.94,.32,5.85,.88,2.01,.59,3.33,1.9,3.98,3.83,.89,2.67,.84,5.39-.06,8.06-.57,1.67-1.75,2.8-3.31,3.57-1.76,.87-3.63,1.22-5.57,1.23-2.55,.02-5.1,0-7.65,0h0c-2.83,0-5.66,0-8.5,0-.72,0-.73-.01-.73-.71,0-5.41,0-10.82,0-16.23Zm27.52,41.32c-.77,3.26-2.85,5.22-6.08,6.01-1.54,.38-3.1,.5-4.68,.52-2.3,.02-4.59,0-6.89,0h0c-3.05,0-6.1,0-9.16,0-.71,0-.72-.01-.73-.73,0-5.47,0-10.94,0-16.42,0-.69,.01-.7,.75-.7,5.38,0,10.76-.03,16.14,.01,1.98,.02,3.96,.22,5.85,.88,3.12,1.08,4.82,3.28,5.06,6.58,.1,1.29,.02,2.58-.28,3.84Z"/>
    <path class="cls-9" d="M399.2,44.73c-1.9-3.43-4.41-6.08-8-7.68-.09-.04-.17-.09-.17-.25,.34-.22,.7-.46,1.06-.7,3.21-2.13,5.31-5.05,6.24-8.79,1.23-4.97,1.15-9.93-.5-14.79-1.62-4.76-4.72-8.25-9.35-10.31-2.17-.97-4.48-1.44-6.82-1.78-.17-.13-.36-.07-.54-.08-.18,0-.37,0-.55,0-.14,0-.27,0-.41,0-.25-.04-.53,.09-.76-.1h-33.82c0,.41,.02,.82,.02,1.23,0,23.63,0,47.26,0,70.88,0,.22,0,.44,0,.66q.02,.64,.7,.66c.09,0,.19,0,.28,0,9.88,0,19.77,.01,29.65,0,3.15,0,6.28-.27,9.38-.88,5.78-1.12,10.13-4.21,13.14-9.25,3.35-5.59,3.31-13.63,.44-18.81Zm-40.02-14.09c0-5.35,0-10.69,0-16.04,0-.78,0-.79,.74-.79,4.97,0,9.94,0,14.91,0,2.12,0,4.19,.3,6.23,.91,2.01,.61,3.31,1.93,3.93,3.87,.85,2.61,.8,5.27-.04,7.88-.54,1.67-1.68,2.84-3.24,3.63-1.75,.89-3.62,1.26-5.55,1.28-2.61,.03-5.22,0-7.83,0h0c-2.8,0-5.6,0-8.4,0-.86,0-.75-.02-.75-.78Zm27.46,25.34c-.81,3.19-2.89,5.05-6.02,5.83-1.53,.38-3.1,.5-4.68,.52-2.3,.02-4.59,0-6.89,0h0c-3.05,0-6.1,0-9.15,0-.71,0-.72-.01-.72-.73,0-5.47,0-10.94,0-16.41,0-.7,.01-.71,.74-.71,5.38,0,10.76-.03,16.14,.01,1.98,.02,3.96,.22,5.85,.88,3.18,1.1,4.92,3.42,5.07,6.76,.06,1.29-.01,2.57-.33,3.84Z"/>
  </g>
  <g id="A_C_E_H_E_T_H_N_I_C_M_U_S_I_C" data-name="A C E H   E T H N I C   M U S I C">
    <text id="A_C_E_H_E_T_H_N_I_C_M_U_S_I_C-2" data-name="A C E H   E T H N I C   M U S I C" class="cls-80" transform="translate(.14 102.99) scale(1.1 1)"><tspan x="0" y="0" xml:space="preserve">A C E H   E T H N I C   M U S I C</tspan></text>
  </g>
  <g id="Layer_2_copy_2_Image" data-name="Layer 2 copy 2 Image">
    <g>
      <path class="cls-7" d="M278.2,69.54c.26-.68,.14-1.39,.17-2.09,.04-.89-.03-1.78-.06-2.67,.2,.34,.17,.73,.18,1.08,.01,1.08,.01,2.15-.03,3.23-.02,.65-.07,1.37,.23,2.01v.57c-.21,0-.21-.19-.29-.3-.11-.6-.35-1.2-.2-1.83Z"/>
      <path class="cls-36" d="M278.51,71.39c.06,.09,.13,.19,.19,.28v.47c-.06,0-.13,0-.19,0-.18-.25-.18-.5,0-.75Z"/>
    </g>
  </g>
  <g id="Layer_2_copy_3_Image" data-name="Layer 2 copy 3 Image">
    <g>
      <path class="cls-9" d="M412.84,54.52c.86-1.04,1.71-2.08,2.57-3.12,.68-.16,1.36,.07,2.04,.04,.65-.03,1.29,.07,1.94-.06,.65,0,1.28-.19,1.93-.23,.11,0,.21-.03,.31,.03,.69,.64,1.22,1.42,1.85,2.11,.33,.3,.54,.7,.82,1.03,.74,1.08,1.41,2.21,1.93,3.41,1.06,2.31,1.45,4.77,1.7,7.26,.18,.88,.12,1.77,.13,2.65,0,.45,0,.9-.03,1.36,0,.17,.03,.35-.08,.5-.37,.34-.89,.29-1.31,.48-.26,.06-.53,.12-.79,.2-.4,.1-.81,.17-1.2,.31-.27,.15-.59,.08-.87,.17-.56,.06-1.11,.2-1.68,.25-.05,.02-.09,.03-.14,.04-.22,.04-.44,.01-.66,.09-.05,.02-.11,.03-.16,.03-1.86,.16-3.73,.16-5.59,0-.25-.07-.51-.08-.77-.12-.21-.07-.42-.07-.64-.09-.05,0-.09-.02-.14-.03-.18-.06-.37-.04-.55-.09-.43-.1-.86-.16-1.29-.27-.41-.12-.81-.22-1.23-.29-.49-.23-1.06-.15-1.54-.41-.29-.21-.4-.5-.38-.85,.01-.18,.01-.37-.03-.56-.06-.2,.03-.44-.12-.62v-.47c.06-.05,.05-.12,.05-.19,0-.07,0-.14-.05-.19v-.47c.08-.38,.08-.76,0-1.13v-.28c.08-.08,.04-.18,.05-.26,0-.07,.01-.15-.05-.21v-.38c.15-.66,.23-1.33,.39-1.98,.03-.12,.06-.25,.09-.37,.13-.76,.25-1.53,.56-2.24,.12-.23,.19-.47,.3-.7,.14-.28,.31-.54,.37-.86,.19-.42,.54-.76,.67-1.22,.2-.42,.55-.75,.78-1.15,.33-.33,.52-.76,.83-1.1Z"/>
      <path class="cls-9" d="M415.31,.48c.05-.11,.16-.14,.26-.18,.3-.07,.6-.12,.9-.19,.1,0,.21,0,.31,0,.2,.01,.4-.07,.61-.05,.3-.03,.61,.06,.92-.05h.09c.17,.1,.36,.09,.55,.1,.25,.12,.52,.13,.78,.17,.5,0,.66,.21,.67,.74,.04,2.79,.13,5.58,.2,8.37-.02,.34,.2,.76-.3,.95-.04,.02-.09,.03-.13,.05-.28,.06-.55,.11-.83,.19-.05,.02-.1,.03-.15,.03-.68,.01-1.37,.04-2.05-.01-.23-.09-.48-.07-.72-.07-.37-.1-.81-.03-1.04-.45-.07-.18-.04-.37-.04-.56,0-2.87,0-5.74,0-8.61,0-.14,.02-.28-.02-.42Z"/>
      <path class="cls-43" d="M410.94,70.07c.43,.05,.84,.16,1.25,.3,.05,.26,.29,.15,.44,.24,.39,.05,.78,.16,1.17,.17,1.06,.25,2.14,.35,3.22,.41,.84,0,1.69,0,2.53,0,1.46-.02,2.89-.33,4.32-.56,.27-.04,.57-.01,.82-.18,.13-.09,.29-.05,.42-.11,.04-.02,.08-.04,.13-.05,.14,0,.27-.03,.4-.06,.37-.08,.74-.16,1.11-.26,.1-.04,.22,0,.3-.11,.06-.03-.03-.08,.01-.03,.01,.02,0,.03-.02,.04-.11,.08-.24,.07-.36,.08-.04-.01-.08-.04-.1-.07,.39-.16,.8-.28,1.22-.33,.29,.41,.24,.9,.31,1.37,.02,.17-.02,.34,.1,.49v.76c-.13,.15-.3,.24-.49,.3-.47,.12-.93,.29-1.41,.39-.95,.21-1.88,.5-2.82,.72-.18,.04-.36,.05-.53,.11-1.25,.22-2.5,.35-3.76,.48-1.16,.03-2.32,.08-3.48-.07-1.25-.13-2.48-.41-3.7-.69-.95-.31-1.93-.51-2.86-.88-.17-.1-.25-.25-.25-.44,0-.05,0-.1,.03-.15,.05-.35,0-.71,.03-1.06,.06-.19,.05-.4,.09-.59,.1-.19-.02-.47,.24-.59,.61,.29,1.28,.35,1.9,.59,.13,.07,.27,.03,.4,.07-.1-.05-.22,0-.32-.05-.1-.09-.35,.03-.34-.23Z"/>
      <path class="cls-65" d="M428.21,71.42c-.17-.03-.16-.17-.17-.29-.08-.52-.16-1.04-.24-1.57,.24-.69,.13-1.42,.16-2.13,.04-.81-.02-1.62-.04-2.44,.12,.06,.1,.18,.11,.28,.11,.47-.05,.95,.08,1.42,0,.38,0,.75,0,1.13-.08,.66-.08,1.32,0,1.99,0,.13,0,.25,0,.38,.12,.27-.04,.58,.09,.85v.38Z"/>
      <path class="cls-64" d="M409.05,70.87c-.01,.37,.03,.75-.07,1.12-.14-.15-.04-.34-.07-.5,0-.88,0-1.75,0-2.63,0-.15,.04-.31-.05-.46v-.66c.28,.11,.1,.39,.2,.56,.08,.5,0,1.01,.09,1.51-.02,.36-.04,.71-.09,1.06Z"/>
      <path class="cls-57" d="M418.87,74.35h-3.3c-.03-.06-.02-.1,.03-.14,.15-.09,.32-.08,.49-.08,.39,.06,.78,.02,1.17,.03,.47,0,.95,0,1.42,0,.06,0,.11,.02,.16,.04,.05,.04,.06,.08,.04,.14Z"/>
      <path class="cls-3" d="M408.86,68.39c.14,.12,.09,.29,.09,.44,0,.89-.01,1.78-.02,2.67-.02,.05-.05,.05-.08,0v-3.12Z"/>
      <path class="cls-48" d="M409.25,62.16c-.08,.62-.17,1.23-.25,1.85-.01,.08-.04,.15-.14,.13v-.94c.29-.07,.12-.34,.21-.49,.1-.17,0-.41,.18-.54Z"/>
      <path class="cls-11" d="M415.56,74.25s0,.06,0,.09h-1.23c-.1-.06-.19-.12-.29-.19,.12-.14,.29-.12,.46-.13,.19,0,.37,0,.56,.03,.16,.07,.37,.04,.5,.19Z"/>
      <path class="cls-23" d="M416.5,.18c-.32,.02-.62,.16-.94,.11,.21-.21,.55-.07,.75-.29h.38c.06,.19-.14,.11-.19,.18Z"/>
      <path class="cls-61" d="M418.87,74.35s0-.06,0-.09c.17-.15,.41-.06,.59-.18,.18,0,.38-.06,.54,.08-.08,.15-.29,.04-.38,.19h-.76Z"/>
      <path class="cls-27" d="M419.72,.28c-.3,.06-.57-.05-.86-.09-.05-.08-.25,0-.19-.18h.38c.17,.22,.48,.1,.67,.28Z"/>
      <path class="cls-28" d="M408.86,65.28c.16,.38,.15,.76,0,1.13v-1.13Z"/>
      <path class="cls-71" d="M418.3,0c-.3,.19-.63,.05-.95,.09-.03-.02-.04-.04-.03-.06,.01-.02,.02-.03,.03-.03h.94Z"/>
      <path class="cls-1" d="M428.21,71.04c-.18-.27-.06-.57-.09-.85,.03,0,.06,0,.09,0v.85Z"/>
      <path class="cls-8" d="M409.14,72.54c-.09-.06-.18-.12-.27-.18,0-.09,0-.19,0-.28,.03-.04,.07-.04,.1,0,0,.14,.07,.25,.18,.33,.06,.05,.05,.09,0,.12Z"/>
      <path class="cls-70" d="M417.36,0s0,.06,0,.09c-.19,.03-.38,.06-.56,.1-.06-.18,.15-.1,.19-.19h.38Z"/>
      <path class="cls-76" d="M418.68,0c.06,.06,.13,.12,.19,.18-.18,0-.35-.02-.47-.18,.09,0,.19,0,.28,0Z"/>
      <path class="cls-2" d="M408.96,72.08s-.07,0-.1,0c0-.19,0-.38,0-.57,.03,0,.05,0,.08,0,.01,.16,.03,.32,.04,.48,0,.03-.01,.06-.02,.09Z"/>
      <path class="cls-14" d="M416.98,0c-.06,.06-.13,.12-.19,.19-.1,0-.19,0-.29,0,.06-.06,.13-.12,.19-.18,.09,0,.19,0,.28,0Z"/>
      <path class="cls-74" d="M408.96,64.71c.01,.11,.04,.22-.1,.28v-.28s.07-.04,.1,0Z"/>
      <path class="cls-79" d="M408.96,67.07c.01,.08,.04,.18-.09,.19v-.19s.06-.04,.09,0Z"/>
      <path class="cls-75" d="M408.96,67.07h-.09v-.19c.11,.02,.11,.1,.09,.19Z"/>
      <path class="cls-13" d="M408.96,64.71s-.07,0-.1,0c0-.06,0-.13,0-.19,.14,0,.11,.11,.1,.19Z"/>
      <path class="cls-60" d="M420.63,12.1c-.1,0-.2,0-.31,0-1.18,.27-2.38,.22-3.58,.22-.37,0-.72-.11-1.09-.13h0c-.05-.12-.57,0-.19-.35,.49-.03,.97,.09,1.45,.16,1.07,.17,2.1-.09,3.14-.23,.37-.05,.4-.26,.3-.83-.06-.35-.27-.28-.49-.23-.37,.09-.75,.08-1.12,.17-.32,.03-.65,0-.97,.02-.77-.1-1.55-.16-2.28-.44-.18-.21-.19-.25-.03-.35,.32,.09,.64,.19,.96,.28,.22,.11,.49-.02,.71,.14,.22,0,.45,0,.67,0,.25,.06,.49,.06,.74,0,.27-.04,.55,.07,.81-.07h0c.29-.05,.59-.04,.86-.18h0c.13-.05,.26-.07,.38,0,.05,.6,.14,1.2,.06,1.8Z"/>
      <path class="cls-46" d="M426.22,57.73c-.61-1.16-1.29-2.28-1.99-3.38-.03-.07-.05-.15,.01-.22,.85,.99,1.35,2.19,1.94,3.33,.04,.08,.02,.18,.03,.27Z"/>
      <path class="cls-44" d="M421.62,51.18c-.72,.17-1.45,.29-2.19,.31-.03-.05-.03-.1,.02-.14,.5-.17,1.04-.15,1.54-.33,.57-.13,.34-.59,.4-.94,0-.07,.02-.14,.04-.21,.04-.06,.08-.13,.17-.09,.06,.46,.07,.93,.01,1.4Z"/>
      <path class="cls-42" d="M424.25,54.13c0,.07,0,.14-.01,.22-.29-.33-.55-.68-.77-1.06,.38,.16,.53,.55,.78,.84Z"/>
      <path class="cls-1" d="M428.12,69.81c-.15-.66-.13-1.32,0-1.99,0,.66,0,1.32,0,1.99Z"/>
      <path class="cls-32" d="M421.61,49.79s-.07,.06-.1,.09c-.34,.26-.74,.23-1.13,.21-.09-.02-.16-.05-.21-.13,.47-.12,.97-.08,1.44-.26,0,.02,.02,.04,.02,.06,0,0,0,.02,0,.03Z"/>
      <path class="cls-43" d="M420.56,10.3c-.13,0-.25,0-.38,0,.56-.11,.33-.58,.41-.91,.06,.31,.09,.61-.03,.91Z"/>
      <path class="cls-1" d="M428.12,66.7c-.17-.46-.05-.95-.08-1.42,.19,.46,.04,.95,.08,1.42Z"/>
      <path class="cls-31" d="M415.47,11.9c-.2,.26,.22,.14,.18,.3-.2,0-.34,.04-.31,.29,.01,.11,0,.22,0,.33,0,12.08,0,24.15,0,36.23,0,.25-.06,.51,.15,.71,0,.11,.07,.21,.08,.32,.02,.11,.02,.21,.02,.32q.01,.71,.7,.8c.36,.15,.77-.06,1.11,.19,.03,.04,.05,.09,.04,.14-.69,.03-1.37-.02-2.04-.14-.2-.72-.11-1.47-.11-2.2-.02-12.19-.01-24.37-.02-36.56,0-3.95,0-7.9,0-11.85,0-.11,.02-.21,.03-.32,.01,.27,.03,.53,.03,.8,0,2.74,0,5.47,0,8.21,0,.22-.03,.44,.11,.63-.13,.1-.01,.19,.01,.28,.22,.5,.22,1.01,0,1.51Z"/>
      <path class="cls-72" d="M410,59.54c-.22,.75-.44,1.5-.66,2.25,0-1.1,.21-2.16,.75-3.13,.22,.32-.04,.59-.08,.88Z"/>
      <path class="cls-24" d="M411.31,56.77c-.06,.49-.41,.83-.66,1.23-.06,.07-.08,.19-.19,.22-.04,0-.08-.01-.1-.04,.14-.53,.45-.97,.77-1.4,.06-.06,.12-.06,.18,0Z"/>
      <path class="cls-58" d="M411.31,56.77c-.06,0-.12,0-.18,0,.23-.5,.58-.92,.93-1.34,.07,.07,.06,.14,.01,.21-.19,.42-.51,.74-.77,1.12Z"/>
      <path class="cls-16" d="M410.36,58.18s.07,0,.11,0c.1,.27-.2,.44-.17,.69-.07,.23-.14,.46-.29,.66,0-.3,.14-.58,.08-.88,0-.21,.12-.35,.27-.48Z"/>
      <path class="cls-54" d="M412.08,55.66c0-.07,0-.14-.01-.21,.3-.27,.39-.72,.78-.92-.21,.41-.47,.79-.77,1.14Z"/>
      <path class="cls-45" d="M424.81,70.47c-.36,.3-.82,.26-1.24,.32-1.31,.21-2.62,.5-3.96,.52-.09-.14-.34,.08-.39-.16,.56-.13,1.13-.05,1.69-.16,.13-.03,.28,.06,.4-.06h0c.21-.1,.46,.05,.67-.09h0c.6-.06,1.21-.13,1.8-.29,.25-.19,.58,0,.83-.18,.04-.02,.07-.02,.11-.02,.06,.02,.09,.07,.1,.13Z"/>
      <path class="cls-26" d="M421.32,70.93c-.42,.16-.86,.17-1.31,.21-.26,.02-.53-.1-.77,.09-.55,.1-1.11,.02-1.66,.04-.59-.07-1.18-.04-1.77-.14-.14-.02-.33,.05-.35-.2,1.48,.12,2.96,.19,4.45,.09,.47-.03,.93-.06,1.4-.1Z"/>
      <path class="cls-22" d="M415.47,70.94c.39,.15,.8,.18,1.22,.2,.29,.02,.59-.1,.86,.09-.17,.12-.39-.03-.57,.09-1.08-.1-2.17-.11-3.21-.47,.04-.08,.11-.1,.19-.12,.04,0,.08,0,.11,.02h0c.21,.15,.47-.01,.69,.1,.25-.01,.49,.01,.72,.1Z"/>
      <path class="cls-45" d="M411.22,70.38c-.54-.15-1.08-.31-1.62-.46-.12-.03-.26-.02-.27-.2,0-.04,.03-.05,.07-.04,.51,.13,1.05,.15,1.54,.39,.06,.18,.3,.06,.37,.21,0,.06-.07,.06-.09,.09Z"/>
      <path class="cls-55" d="M426.59,69.9s.09,.02,.13,.03c.04,.02,.06,.04,.08,.08-.32,.3-.77,.2-1.14,.37-.04-.04-.11-.06-.12-.13,.05-.16,.24-.04,.31-.16,.23-.12,.48-.17,.73-.19Z"/>
      <path class="cls-5" d="M409.4,69.69s-.04,.03-.07,.04c-.18,.15-.02,.41-.18,.57-.13-.15,0-.35-.09-.5,0-.5,0-1,0-1.5,.13,.17,.09,.36,.08,.54-.01,.32,.06,.6,.27,.85Z"/>
      <path class="cls-26" d="M412.54,70.66c-.15,0-.31,.02-.43-.08-.18-.14-.05-.18,.08-.21,.44,.06,.88,.14,1.31,.27,.03,.04,.03,.08,0,.13-.33,.03-.63-.14-.96-.1Z"/>
      <path class="cls-43" d="M417.45,51.54s0-.04,0-.06c.1-.12,.25-.12,.39-.13,.42-.02,.84,.03,1.25-.07,.12-.03,.25,0,.34,.1,0,.03,0,.07,0,.1-.66,.13-1.32,.11-1.98,.05Z"/>
      <path class="cls-43" d="M423.77,70.55c-.58,.24-1.18,.33-1.8,.29,.59-.14,1.19-.24,1.8-.29Z"/>
      <path class="cls-43" d="M425.85,70.09c-.09,.06-.19,.13-.28,.19-.11,.11-.27-.01-.38,.1h0c-.15,.08-.3,.05-.45,.02-.05-.01-.09-.02-.14-.03,.41-.12,.82-.23,1.25-.28Z"/>
      <path class="cls-77" d="M410.29,58.88c-.1-.27,.14-.45,.17-.69,.04-.08,.09-.16,.19-.19,0,.34-.21,.6-.36,.88Z"/>
      <path class="cls-26" d="M421.98,70.84c-.2,.2-.45,.07-.67,.1,.21-.11,.44-.1,.67-.1Z"/>
      <path class="cls-43" d="M414.74,70.84c-.23-.02-.48,.11-.69-.1,.24,0,.47,0,.69,.1Z"/>
      <path class="cls-43" d="M413.49,70.76s0-.08,0-.12c.19,0,.39,0,.57,.11-.04,0-.08,.02-.13,.03-.15,.04-.3,.06-.45-.02Z"/>
      <path class="cls-37" d="M417.84,10.6c-.25,0-.51-.01-.76-.02-.03-.02-.04-.05-.03-.07,0-.02,.02-.03,.03-.03,.75,.05,1.5,.05,2.26,0-.26,.22-.57,.06-.85,.13-.22,.04-.43,.05-.65,0Z"/>
      <path class="cls-43" d="M420.19,10.29c-.25,.23-.55,.2-.86,.19,.28-.11,.56-.17,.86-.19Z"/>
      <path class="cls-40" d="M417.08,10.48s0,.07,0,.1c-.19-.16-.48,0-.66-.18,.23-.04,.45,0,.66,.08Z"/>
      <path class="cls-30" d="M412,73.3c1.22,.22,2.43,.53,3.66,.68,.03,.06,.01,.1-.04,.14-.35,.12-.69-.06-1.04,0-.13,0-.26,0-.39,0-.12-.04-.25-.04-.37-.07-.56-.31-1.21-.31-1.81-.5-.13-.04-.34,.01-.32-.24,.1-.04,.2-.04,.3,0Z"/>
      <path class="cls-20" d="M412,73.3c-.1,0-.2,0-.3,.01-.06,.05-.13,.07-.21,.06-.55-.09-1.1-.22-1.64-.36-.18-.07-.34-.17-.5-.28-.07-.06-.14-.13-.21-.19,0-.04,0-.08,0-.12,.95,.29,1.9,.59,2.85,.88Z"/>
      <path class="cls-39" d="M419.24,74.06c.36-.23,.76-.06,1.14-.13,.87-.15,1.75-.23,2.63-.34,0,.02,.02,.05,.02,.07-.03,.05-.06,.08-.11,.1-.55,.1-1.11,.18-1.66,.25-.43,.02-.85,.14-1.28,.1-.25-.03-.5,.06-.74-.05Z"/>
      <path class="cls-18" d="M419.24,74.06c.25,0,.5,0,.76,.01,.03,.02,.04,.04,.03,.06-.01,.02-.02,.03-.03,.03,0,0,0,0,0,0-.19,0-.38,0-.57,.01-.22,.08-.45,.02-.68,.04-.49,0-.98,0-1.47,0-.54-.03-1.1,.09-1.62-.14,0-.03,0-.06,0-.09,1.19,.11,2.39,.14,3.59,.09Z"/>
      <path class="cls-21" d="M427.75,72.36c-.51,.44-1.13,.65-1.78,.77-.09,.05-.12,0-.14-.08,.1-.22,.36-.17,.51-.3,.47-.13,.94-.26,1.4-.39Z"/>
      <path class="cls-39" d="M426.34,72.75c-.08,.24-.33,.18-.49,.28-.33,.24-.74,.23-1.11,.34-.19,.02-.37,.11-.56,.12-.21,0-.41,.17-.64,.05-.02-.02-.03-.04-.05-.05,.94-.28,1.89-.56,2.86-.74Z"/>
      <path class="cls-52" d="M416.98,71.32c.17-.17,.38-.06,.57-.09,.57,0,1.13,0,1.7,0,.13,.01,.28-.04,.38,.09-.88,0-1.76,0-2.64,0Z"/>
      <path class="cls-34" d="M413.49,70.76c.15,0,.3,.01,.45,.02-.03,.08-.1,.08-.17,.08-.42,0-.83-.02-1.23-.19,.34-.18,.63,.03,.94,.09Z"/>
      <path class="cls-33" d="M409.06,69.8c.12,.15,.05,.34,.09,.5-.03,.19,.03,.4-.1,.57,0-.36,0-.72,0-1.07Z"/>
      <path class="cls-35" d="M411.22,70.38s.06-.06,.09-.09c.13,.02,.28-.03,.39,.14-.16-.02-.32-.07-.48-.05Z"/>
      <path class="cls-66" d="M426.8,70s-.05-.05-.08-.08c.13-.02,.26-.05,.4-.07-.07,.18-.21,.14-.32,.16Z"/>
      <path class="cls-68" d="M427.32,69.85c.09-.14,.2-.14,.36-.09-.13,.07-.22,.14-.36,.09Z"/>
      <path class="cls-59" d="M424.74,70.4c.15,0,.3-.01,.45-.02-.1,.14-.25,.08-.38,.1-.03-.03-.05-.05-.08-.08Z"/>
      <path class="cls-34" d="M425.19,70.38c.1-.13,.25-.08,.38-.1,.03,.03,.06,.06,.09,.09-.16,0-.31,0-.47,0Z"/>
      <path class="cls-39" d="M423.02,73.59c.13-.15,.31-.07,.47-.1,0,0,.01,.01,.01,.01-.11,.28-.29,.18-.47,.1h-.01Z"/>
      <path class="cls-47" d="M421.31,73.96c.57-.09,1.13-.18,1.7-.27,.23-.07,.45-.09,.68,0-.58,.19-1.19,.21-1.79,.29-.2,.05-.39,.07-.59-.02Z"/>
      <path class="cls-17" d="M424.72,73.29c.38-.09,.76-.18,1.14-.27,.04,.03,.08,.07,.12,.1-.46,.19-.95,.28-1.44,.37-.04,.04-.08,.04-.12,0,0-.23,.25-.07,.3-.21Z"/>
      <path class="cls-15" d="M424.44,73.49s.06,0,.1,.01c-.27,.13-.57,.13-.85,.19-.23,0-.45,0-.68,0,.01-.03,.02-.06,.03-.09,.16-.02,.33,.03,.47-.1,.22-.03,.44-.06,.66-.09,.08,.07,.2-.02,.28,.07Z"/>
      <path class="cls-61" d="M421.31,73.96c.2,0,.39,.01,.59,.02-.63,.12-1.26,.21-1.9,.18,0-.03,0-.05,0-.08,.43-.04,.87-.07,1.3-.11Z"/>
      <path class="cls-49" d="M413.86,73.97c.1,0,.21,0,.29,.09-.06,.07-.15,.05-.23,.05-.21-.02-.43,.05-.63-.05-.16,.02-.31-.1-.46-.02-.39-.21-.86-.18-1.26-.4,0-.05,0-.1,.05-.13,.13-.1,.27-.08,.4-.03,.6,.21,1.24,.26,1.84,.48Z"/>
      <path class="cls-63" d="M410.75,73.5c-.25-.14-.57-.12-.77-.36,.02-.02,.03-.04,.05-.06,.35,0,.69,.1,1.02,.18,.13,.06,.27,.03,.4,.07,.12,.04,.25,.07,.15,.24h0c-.3,.16-.57-.03-.85-.09Z"/>
      <path class="cls-6" d="M410.75,73.5c.28,.03,.57,.07,.85,.1,.37,.25,.89,.12,1.24,.45-.69-.19-1.43-.22-2.08-.55Z"/>
      <path class="cls-63" d="M409.34,72.73c.16,.06,.31,.13,.47,.19,.04,.08,.23,.01,.19,.18,0,0-.02,.03-.02,.03-.27-.04-.48-.17-.64-.4Z"/>
      <path class="cls-11" d="M413.3,74.06c.22,0,.44,0,.66,0,.03,.02,.05,.04,.04,.06,0,.02-.02,.03-.03,.03-.22-.03-.46,.08-.66-.09Z"/>
      <path class="cls-51" d="M413.96,74.16s0-.06,0-.09c.07,0,.13,0,.2,0,.12,0,.25,0,.37,0,.03,.02,.04,.04,.03,.06,0,.02-.02,.03-.03,.03-.16,0-.32,0-.48,0-.03,0-.06,0-.09,0Z"/>
      <path class="cls-25" d="M414.53,74.15s0-.06,0-.09c.38,0,.76,0,1.13,0,.53,.04,1.07,.08,1.6,.11,.03,.02,.04,.03,.03,.05-.01,.02-.02,.03-.03,.03-.41,0-.82,0-1.23,0-.31-.13-.64,.03-.95-.09-.19,0-.38,0-.56,0Z"/>
      <path class="cls-62" d="M417.26,74.25s0-.05,0-.08c.5,0,1.01,0,1.51,0,.03,.02,.04,.03,.03,.05-.01,.02-.02,.02-.03,.02-.5,0-1.01,0-1.51,0Z"/>
      <path class="cls-51" d="M415.09,74.16c.31,.04,.65-.1,.95,.09-.16,0-.32,0-.47,0-.16-.02-.34,.06-.47-.09Z"/>
      <path class="cls-67" d="M418.77,74.25s0-.05,0-.07c.22,0,.44,0,.66,0-.17,.15-.38,.06-.56,.09-.03,0-.06,0-.1,0Z"/>
      <path class="cls-56" d="M415.47,49.97c-.03-.08-.09-.16,.03-.21,.02-.01,.04-.01,.06,0,1.02,.22,2.05,.26,3.09,.25,.57,0,1.15,.04,1.72-.03,.38-.04,.76-.07,1.13-.11,0,.06,0,.13,0,.19-.14,.13-.33,.14-.5,.19-.16,.04-.32,.03-.47,.04-.44-.03-.86,.11-1.3,.1-.31-.01-.61,0-.92,0-.5,.03-.98-.13-1.48-.09-.18-.02-.37,0-.55-.03-.18-.03-.35-.09-.54-.07-.18,.02-.22-.11-.28-.23Z"/>
      <path class="cls-43" d="M420.37,49.99s-.05,.05-.07,.05c-1.56,.04-3.13,.12-4.67-.2-.02,0-.04-.04-.06-.07,1.53,.2,3.06,.2,4.6,.19,.07,0,.14,.02,.21,.03Z"/>
      <path class="cls-43" d="M416.7,12.28c1.21,.04,2.42-.04,3.62-.18-1.19,.32-2.4,.37-3.62,.24,0-.02,0-.04,0-.06Z"/>
      <path class="cls-31" d="M416.7,12.28s0,.04,0,.06c-.36,.04-.71-.01-1.05-.15,.36-.07,.7,.08,1.05,.09Z"/>
      <path class="cls-43" d="M415.47,11.9c0-.5,0-1.01,0-1.51,.76,.13,1.51,.25,2.27,.38,.35,.08,.69,.08,1.04,0,.49-.09,.98-.18,1.46-.28,.03,0,.08-.01,.09,0,.2,.34,.15,.74,.23,1.11,.04,.18-.13,.26-.26,.28-1.34,.21-2.68,.47-4.04,.17-.26-.06-.52-.1-.78-.15Z"/>
      <path class="cls-38" d="M418.77,10.77c-.35,.15-.69,.15-1.04,0,.35,0,.69,0,1.04,0Z"/>
      <path class="cls-38" d="M417.84,10.6c.22,0,.43,0,.65,0-.22,.12-.43,.12-.65,0Z"/>
      <path class="cls-43" d="M421.04,50.16c.13-.16,.31-.07,.47-.09,0,.17-.01,.35,0,.52,.04,.36-.11,.53-.47,.52-.99,.24-2,.31-3.01,.32-.57,0-1.15-.07-1.72-.13q-.85,0-.85-.86c0-.15,0-.31,0-.46,.21,.25,.54-.02,.75,.19,.19,.08,.38,.08,.57,0,.51-.06,1,.13,1.51,.09,.31,.08,.63,.08,.94,0,.45,.03,.87-.16,1.32-.09,.16,.08,.31,.08,.47,0Z"/>
      <path class="cls-29" d="M416.32,51.3c.56,0,1.12,.06,1.67,.07,.86,.02,1.73-.07,2.59-.22,.15-.03,.31-.03,.46-.04-.51,.23-1.05,.28-1.61,.28-.66,.12-1.32,.09-1.98,.09-.35-.22-.78,.04-1.13-.19Z"/>
      <path class="cls-19" d="M411.6,73.58c-.07-.34-.44-.05-.57-.27,.16-.07,.31-.07,.47,0,.06,0,.13,0,.19,0,.52,.12,1.04,.25,1.56,.37,.23,.05,.44,.13,.62,.29-.58-.02-1.14-.15-1.68-.36-.18-.07-.38-.17-.58-.03Z"/>
      <path class="cls-30" d="M411.5,73.31c-.16,0-.32,0-.47,0-.34-.07-.69-.13-1.03-.2-.06-.06-.13-.12-.19-.18,.57,.09,1.14,.19,1.7,.38Z"/>
      <path class="cls-78" d="M424.44,73.49c-.1,0-.2,.03-.28-.07,.19-.04,.37-.08,.56-.13-.04,.14-.22,.08-.28,.2Z"/>
      <path class="cls-43" d="M419.24,50.26c-.31,.15-.63,.15-.94,0,.31,0,.63,0,.94,0Z"/>
      <path class="cls-43" d="M416.79,50.16c-.19,.14-.38,.14-.57,0,.19,0,.38,0,.57,0Z"/>
      <path class="cls-43" d="M421.04,50.16c-.16,.14-.31,.14-.47,0,.16,0,.31,0,.47,0Z"/>
      <path class="cls-9" d="M421.33,37.67c-.21-8.02-.41-16.04-.62-24.06-.01-.5-.05-1-.08-1.5-.11-.12-.25-.11-.4-.09-1.15,.31-2.32,.22-3.48,.23-.39,.02-.75-.1-1.13-.14-.06,0-.12,0-.17,.03-.2,.12-.12,.31-.12,.47,0,12.23,0,24.45,0,36.68,0,.17-.03,.35,.08,.5,.04,.05,.09,.08,.15,.1,1.51,.24,3.03,.26,4.56,.2,.19-.06,.39-.07,.59-.08,.32-.02,.65-.04,.89-.3,0-.14,.03-.28,.02-.42-.1-3.87-.19-7.74-.29-11.61Zm-3.33-23.67c.48-.02,.89,.42,.9,.96,0,.53-.39,1-.86,1.01-.47,.01-.88-.45-.88-.98,0-.51,.38-.96,.83-.98Zm.03,4.69c.47,0,.85,.43,.85,.96s-.38,.96-.85,.96-.85-.43-.85-.96,.38-.96,.85-.96Zm0,4.66c.47,0,.85,.43,.85,.96s-.38,.96-.85,.96-.85-.43-.85-.96,.38-.96,.85-.96Zm.14,5.55c.46,0,.88,.46,.88,.99,0,.54-.4,.98-.88,.98-.46,0-.85-.44-.86-.95-.01-.52,.4-1,.86-1.01Zm.13,5.77c.47,0,.85,.43,.85,.96s-.38,.96-.85,.96-.85-.43-.85-.96,.38-.96,.85-.96Zm.16,9.26c-.47,0-.85-.51-.85-1.14s.38-1.14,.85-1.14,.85,.51,.85,1.14-.38,1.14-.85,1.14Z"/>
    </g>
    <g>
      <path class="cls-9" d="M263.15,54.58c.86-1.04,1.71-2.08,2.57-3.12,.68-.16,1.36,.07,2.04,.04,.65-.03,1.29,.07,1.94-.06,.65,0,1.28-.19,1.93-.23,.11,0,.21-.03,.31,.03,.69,.64,1.22,1.42,1.85,2.11,.33,.3,.54,.7,.82,1.03,.74,1.08,1.41,2.21,1.93,3.41,1.06,2.31,1.45,4.77,1.7,7.26,.18,.88,.12,1.77,.13,2.65,0,.45,0,.9-.03,1.36,0,.17,.03,.35-.08,.5-.37,.34-.89,.29-1.31,.48-.26,.06-.53,.12-.79,.2-.4,.1-.81,.17-1.2,.31-.27,.15-.59,.08-.87,.17-.56,.06-1.11,.2-1.68,.25-.05,.02-.09,.03-.14,.04-.22,.04-.44,.01-.66,.09-.05,.02-.11,.03-.16,.03-1.86,.16-3.73,.16-5.59,0-.25-.07-.51-.08-.77-.12-.21-.07-.42-.07-.64-.09-.05,0-.09-.02-.14-.03-.18-.06-.37-.04-.55-.09-.43-.1-.86-.16-1.29-.27-.41-.12-.81-.22-1.23-.29-.49-.23-1.06-.15-1.54-.41-.29-.21-.4-.5-.38-.85,.01-.18,.01-.37-.03-.56-.06-.2,.03-.44-.12-.62v-.47c.06-.05,.05-.12,.05-.19,0-.07,0-.14-.05-.19v-.47c.08-.38,.08-.76,0-1.13v-.28c.08-.08,.04-.18,.05-.26,0-.07,.01-.15-.05-.21v-.38c.15-.66,.23-1.33,.39-1.98,.03-.12,.06-.25,.09-.37,.13-.76,.25-1.53,.56-2.24,.12-.23,.19-.47,.3-.7,.14-.28,.31-.54,.37-.86,.19-.42,.54-.76,.67-1.22,.2-.42,.55-.75,.78-1.15,.33-.33,.52-.76,.83-1.1Z"/>
      <path class="cls-9" d="M265.62,.54c.05-.11,.16-.14,.26-.18,.3-.07,.6-.12,.9-.19,.1,0,.21,0,.31,0,.2,.01,.4-.07,.61-.05,.3-.03,.61,.06,.92-.05h.09c.17,.1,.36,.09,.55,.1,.25,.12,.52,.13,.78,.17,.5,0,.66,.21,.67,.74,.04,2.79,.13,5.58,.2,8.37-.02,.34,.2,.76-.3,.95-.04,.02-.09,.03-.13,.05-.28,.06-.55,.11-.83,.19-.05,.02-.1,.03-.15,.03-.68,.01-1.37,.04-2.05-.01-.23-.09-.48-.07-.72-.07-.37-.1-.81-.03-1.04-.45-.07-.18-.04-.37-.04-.56,0-2.87,0-5.74,0-8.61,0-.14,.02-.28-.02-.42Z"/>
      <path class="cls-43" d="M261.25,70.14c.43,.05,.84,.16,1.25,.3,.05,.26,.29,.15,.44,.24,.39,.05,.78,.16,1.17,.17,1.06,.25,2.14,.35,3.22,.41,.84,0,1.69,0,2.53,0,1.46-.02,2.89-.33,4.32-.56,.27-.04,.57-.01,.82-.18,.13-.09,.29-.05,.42-.11,.04-.02,.08-.04,.13-.05,.14,0,.27-.03,.4-.06,.37-.08,.74-.16,1.11-.26,.1-.04,.22,0,.3-.11,.06-.03-.03-.08,.01-.03,.01,.02,0,.03-.02,.04-.11,.08-.24,.07-.36,.08-.04-.01-.08-.04-.1-.07,.39-.16,.8-.28,1.22-.33,.29,.41,.24,.9,.31,1.37,.02,.17-.02,.34,.1,.49v.76c-.13,.15-.3,.24-.49,.3-.47,.12-.93,.29-1.41,.39-.95,.21-1.88,.5-2.82,.72-.18,.04-.36,.05-.53,.11-1.25,.22-2.5,.35-3.76,.48-1.16,.03-2.32,.08-3.48-.07-1.25-.13-2.48-.41-3.7-.69-.95-.31-1.93-.51-2.86-.88-.17-.1-.25-.25-.25-.44,0-.05,0-.1,.03-.15,.05-.35,0-.71,.03-1.06,.06-.19,.05-.4,.09-.59,.1-.19-.02-.47,.24-.59,.61,.29,1.28,.35,1.9,.59,.13,.07,.27,.03,.4,.07-.1-.05-.22,0-.32-.05-.1-.09-.35,.03-.34-.23Z"/>
      <path class="cls-65" d="M278.52,71.48c-.17-.03-.16-.17-.17-.29-.08-.52-.16-1.04-.24-1.57,.24-.69,.13-1.42,.16-2.13,.04-.81-.02-1.62-.04-2.44,.12,.06,.1,.18,.11,.28,.11,.47-.05,.95,.08,1.42,0,.38,0,.75,0,1.13-.08,.66-.08,1.32,0,1.99,0,.13,0,.25,0,.38,.12,.27-.04,.58,.09,.85v.38Z"/>
      <path class="cls-64" d="M259.36,70.94c-.01,.37,.03,.75-.07,1.12-.14-.15-.04-.34-.07-.5,0-.88,0-1.75,0-2.63,0-.15,.04-.31-.05-.46v-.66c.28,.11,.1,.39,.2,.56,.08,.5,0,1.01,.09,1.51-.02,.36-.04,.71-.09,1.06Z"/>
      <path class="cls-57" d="M269.17,74.41h-3.3c-.03-.06-.02-.1,.03-.14,.15-.09,.32-.08,.49-.08,.39,.06,.78,.02,1.17,.03,.47,0,.95,0,1.42,0,.06,0,.11,.02,.16,.04,.05,.04,.06,.08,.04,.14Z"/>
      <path class="cls-3" d="M259.17,68.46c.14,.12,.09,.29,.09,.44,0,.89-.01,1.78-.02,2.67-.02,.05-.05,.05-.08,0v-3.12Z"/>
      <path class="cls-48" d="M259.56,62.23c-.08,.62-.17,1.23-.25,1.85-.01,.08-.04,.15-.14,.13v-.94c.29-.07,.12-.34,.21-.49,.1-.17,0-.41,.18-.54Z"/>
      <path class="cls-11" d="M265.87,74.32s0,.06,0,.09h-1.23c-.1-.06-.19-.12-.29-.19,.12-.14,.29-.12,.46-.13,.19,0,.37,0,.56,.03,.16,.07,.37,.04,.5,.19Z"/>
      <path class="cls-23" d="M266.81,.25c-.32,.02-.62,.16-.94,.11,.21-.21,.55-.07,.75-.29h.38c.06,.19-.14,.11-.19,.18Z"/>
      <path class="cls-61" d="M269.17,74.41s0-.06,0-.09c.17-.15,.41-.06,.59-.18,.18,0,.38-.06,.54,.08-.08,.15-.29,.04-.38,.19h-.76Z"/>
      <path class="cls-27" d="M270.03,.34c-.3,.06-.57-.05-.86-.09-.05-.08-.25,0-.19-.18h.38c.17,.22,.48,.1,.67,.28Z"/>
      <path class="cls-28" d="M259.17,65.34c.16,.38,.15,.76,0,1.13v-1.13Z"/>
      <path class="cls-71" d="M268.61,.07c-.3,.19-.63,.05-.95,.09-.03-.02-.04-.04-.03-.06,.01-.02,.02-.03,.03-.03h.94Z"/>
      <path class="cls-1" d="M278.52,71.11c-.18-.27-.06-.57-.09-.85,.03,0,.06,0,.09,0v.85Z"/>
      <path class="cls-8" d="M259.44,72.61c-.09-.06-.18-.12-.27-.18,0-.09,0-.19,0-.28,.03-.04,.07-.04,.1,0,0,.14,.07,.25,.18,.33,.06,.05,.05,.09,0,.12Z"/>
      <path class="cls-70" d="M267.66,.07s0,.06,0,.09c-.19,.03-.38,.06-.56,.1-.06-.18,.15-.1,.19-.19h.38Z"/>
      <path class="cls-76" d="M268.98,.07c.06,.06,.13,.12,.19,.18-.18,0-.35-.02-.47-.18,.09,0,.19,0,.28,0Z"/>
      <path class="cls-2" d="M259.27,72.15s-.07,0-.1,0c0-.19,0-.38,0-.57,.03,0,.05,0,.08,0,.01,.16,.03,.32,.04,.48,0,.03-.01,.06-.02,.09Z"/>
      <path class="cls-14" d="M267.29,.07c-.06,.06-.13,.12-.19,.19-.1,0-.19,0-.29,0,.06-.06,.13-.12,.19-.18,.09,0,.19,0,.28,0Z"/>
      <path class="cls-74" d="M259.27,64.78c.01,.11,.04,.22-.1,.28v-.28s.07-.04,.1,0Z"/>
      <path class="cls-79" d="M259.26,67.14c.01,.08,.04,.18-.09,.19v-.19s.06-.04,.09,0Z"/>
      <path class="cls-75" d="M259.26,67.14h-.09v-.19c.11,.02,.11,.1,.09,.19Z"/>
      <path class="cls-13" d="M259.27,64.78s-.07,0-.1,0c0-.06,0-.13,0-.19,.14,0,.11,.11,.1,.19Z"/>
      <path class="cls-60" d="M270.93,12.17c-.1,0-.2,0-.31,0-1.18,.27-2.38,.22-3.58,.22-.37,0-.72-.11-1.09-.13h0c-.05-.12-.57,0-.19-.35,.49-.03,.97,.09,1.45,.16,1.07,.17,2.1-.09,3.14-.23,.37-.05,.4-.26,.3-.83-.06-.35-.27-.28-.49-.23-.37,.09-.75,.08-1.12,.17-.32,.03-.65,0-.97,.02-.77-.1-1.55-.16-2.28-.44-.18-.21-.19-.25-.03-.35,.32,.09,.64,.19,.96,.28,.22,.11,.49-.02,.71,.14,.22,0,.45,0,.67,0,.25,.06,.49,.06,.74,0,.27-.04,.55,.07,.81-.07h0c.29-.05,.59-.04,.86-.18h0c.13-.05,.26-.07,.38,0,.05,.6,.14,1.2,.06,1.8Z"/>
      <path class="cls-46" d="M276.53,57.8c-.61-1.16-1.29-2.28-1.99-3.38-.03-.07-.05-.15,.01-.22,.85,.99,1.35,2.19,1.94,3.33,.04,.08,.02,.18,.03,.27Z"/>
      <path class="cls-44" d="M271.93,51.25c-.72,.17-1.45,.29-2.19,.31-.03-.05-.03-.1,.02-.14,.5-.17,1.04-.15,1.54-.33,.57-.13,.34-.59,.4-.94,0-.07,.02-.14,.04-.21,.04-.06,.08-.13,.17-.09,.06,.46,.07,.93,.01,1.4Z"/>
      <path class="cls-42" d="M274.55,54.2c0,.07,0,.14-.01,.22-.29-.33-.55-.68-.77-1.06,.38,.16,.53,.55,.78,.84Z"/>
      <path class="cls-1" d="M278.42,69.88c-.15-.66-.13-1.32,0-1.99,0,.66,0,1.32,0,1.99Z"/>
      <path class="cls-32" d="M271.91,49.85s-.07,.06-.1,.09c-.34,.26-.74,.23-1.13,.21-.09-.02-.16-.05-.21-.13,.47-.12,.97-.08,1.44-.26,0,.02,.02,.04,.02,.06,0,0,0,.02,0,.03Z"/>
      <path class="cls-43" d="M270.87,10.36c-.13,0-.25,0-.38,0,.56-.11,.33-.58,.41-.91,.06,.31,.09,.61-.03,.91Z"/>
      <path class="cls-1" d="M278.42,66.76c-.17-.46-.05-.95-.08-1.42,.19,.46,.04,.95,.08,1.42Z"/>
      <path class="cls-31" d="M265.78,11.97c-.2,.26,.22,.14,.18,.3-.2,0-.34,.04-.31,.29,.01,.11,0,.22,0,.33,0,12.08,0,24.15,0,36.23,0,.25-.06,.51,.15,.71,0,.11,.07,.21,.08,.32,.02,.11,.02,.21,.02,.32q.01,.71,.7,.8c.36,.15,.77-.06,1.11,.19,.03,.04,.05,.09,.04,.14-.69,.03-1.37-.02-2.04-.14-.2-.72-.11-1.47-.11-2.2-.02-12.19-.01-24.37-.02-36.56,0-3.95,0-7.9,0-11.85,0-.11,.02-.21,.03-.32,.01,.27,.03,.53,.03,.8,0,2.74,0,5.47,0,8.21,0,.22-.03,.44,.11,.63-.13,.1-.01,.19,.01,.28,.22,.5,.22,1.01,0,1.51Z"/>
      <path class="cls-72" d="M260.31,59.6c-.22,.75-.44,1.5-.66,2.25,0-1.1,.21-2.16,.75-3.13,.22,.32-.04,.59-.08,.88Z"/>
      <path class="cls-24" d="M261.62,56.84c-.06,.49-.41,.83-.66,1.23-.06,.07-.08,.19-.19,.22-.04,0-.08-.01-.1-.04,.14-.53,.45-.97,.77-1.4,.06-.06,.12-.06,.18,0Z"/>
      <path class="cls-58" d="M261.62,56.84c-.06,0-.12,0-.18,0,.23-.5,.58-.92,.93-1.34,.07,.07,.06,.14,.01,.21-.19,.42-.51,.74-.77,1.12Z"/>
      <path class="cls-16" d="M260.66,58.25s.07,0,.11,0c.1,.27-.2,.44-.17,.69-.07,.23-.14,.46-.29,.66,0-.3,.14-.58,.08-.88,0-.21,.12-.35,.27-.48Z"/>
      <path class="cls-54" d="M262.38,55.72c0-.07,0-.14-.01-.21,.3-.27,.39-.72,.78-.92-.21,.41-.47,.79-.77,1.14Z"/>
      <path class="cls-45" d="M275.12,70.54c-.36,.3-.82,.26-1.24,.32-1.31,.21-2.62,.5-3.96,.52-.09-.14-.34,.08-.39-.16,.56-.13,1.13-.05,1.69-.16,.13-.03,.28,.06,.4-.06h0c.21-.1,.46,.05,.67-.09h0c.6-.06,1.21-.13,1.8-.29,.25-.19,.58,0,.83-.18,.04-.02,.07-.02,.11-.02,.06,.02,.09,.07,.1,.13Z"/>
      <path class="cls-26" d="M271.62,71c-.42,.16-.86,.17-1.31,.21-.26,.02-.53-.1-.77,.09-.55,.1-1.11,.02-1.66,.04-.59-.07-1.18-.04-1.77-.14-.14-.02-.33,.05-.35-.2,1.48,.12,2.96,.19,4.45,.09,.47-.03,.93-.06,1.4-.1Z"/>
      <path class="cls-22" d="M265.77,71c.39,.15,.8,.18,1.22,.2,.29,.02,.59-.1,.86,.09-.17,.12-.39-.03-.57,.09-1.08-.1-2.17-.11-3.21-.47,.04-.08,.11-.1,.19-.12,.04,0,.08,0,.11,.02h0c.21,.15,.47-.01,.69,.1,.25-.01,.49,.01,.72,.1Z"/>
      <path class="cls-45" d="M261.53,70.44c-.54-.15-1.08-.31-1.62-.46-.12-.03-.26-.02-.27-.2,0-.04,.03-.05,.07-.04,.51,.13,1.05,.15,1.54,.39,.06,.18,.3,.06,.37,.21,0,.06-.07,.06-.09,.09Z"/>
      <path class="cls-55" d="M276.89,69.96s.09,.02,.13,.03c.04,.02,.06,.04,.08,.08-.32,.3-.77,.2-1.14,.37-.04-.04-.11-.06-.12-.13,.05-.16,.24-.04,.31-.16,.23-.12,.48-.17,.73-.19Z"/>
      <path class="cls-5" d="M259.71,69.75s-.04,.03-.07,.04c-.18,.15-.02,.41-.18,.57-.13-.15,0-.35-.09-.5,0-.5,0-1,0-1.5,.13,.17,.09,.36,.08,.54-.01,.32,.06,.6,.27,.85Z"/>
      <path class="cls-26" d="M262.85,70.73c-.15,0-.31,.02-.43-.08-.18-.14-.05-.18,.08-.21,.44,.06,.88,.14,1.31,.27,.03,.04,.03,.08,0,.13-.33,.03-.63-.14-.96-.1Z"/>
      <path class="cls-43" d="M267.76,51.61s0-.04,0-.06c.1-.12,.25-.12,.39-.13,.42-.02,.84,.03,1.25-.07,.12-.03,.25,0,.34,.1,0,.03,0,.07,0,.1-.66,.13-1.32,.11-1.98,.05Z"/>
      <path class="cls-43" d="M274.08,70.62c-.58,.24-1.18,.33-1.8,.29,.59-.14,1.19-.24,1.8-.29Z"/>
      <path class="cls-43" d="M276.16,70.15c-.09,.06-.19,.13-.28,.19-.11,.11-.27-.01-.38,.1h0c-.15,.08-.3,.05-.45,.02-.05-.01-.09-.02-.14-.03,.41-.12,.82-.23,1.25-.28Z"/>
      <path class="cls-77" d="M260.6,58.94c-.1-.27,.14-.45,.17-.69,.04-.08,.09-.16,.19-.19,0,.34-.21,.6-.36,.88Z"/>
      <path class="cls-26" d="M272.29,70.91c-.2,.2-.45,.07-.67,.1,.21-.11,.44-.1,.67-.1Z"/>
      <path class="cls-43" d="M265.05,70.91c-.23-.02-.48,.11-.69-.1,.24,0,.47,0,.69,.1Z"/>
      <path class="cls-43" d="M263.79,70.82s0-.08,0-.12c.19,0,.39,0,.57,.11-.04,0-.08,.02-.13,.03-.15,.04-.3,.06-.45-.02Z"/>
      <path class="cls-37" d="M268.14,10.66c-.25,0-.51-.01-.76-.02-.03-.02-.04-.05-.03-.07,0-.02,.02-.03,.03-.03,.75,.05,1.5,.05,2.26,0-.26,.22-.57,.06-.85,.13-.22,.04-.43,.05-.65,0Z"/>
      <path class="cls-43" d="M270.49,10.35c-.25,.23-.55,.2-.86,.19,.28-.11,.56-.17,.86-.19Z"/>
      <path class="cls-40" d="M267.38,10.54s0,.07,0,.1c-.19-.16-.48,0-.66-.18,.23-.04,.45,0,.66,.08Z"/>
      <path class="cls-30" d="M262.3,73.36c1.22,.22,2.43,.53,3.66,.68,.03,.06,.01,.1-.04,.14-.35,.12-.69-.06-1.04,0-.13,0-.26,0-.39,0-.12-.04-.25-.04-.37-.07-.56-.31-1.21-.31-1.81-.5-.13-.04-.34,.01-.32-.24,.1-.04,.2-.04,.3,0Z"/>
      <path class="cls-20" d="M262.3,73.36c-.1,0-.2,0-.3,.01-.06,.05-.13,.07-.21,.06-.55-.09-1.1-.22-1.64-.36-.18-.07-.34-.17-.5-.28-.07-.06-.14-.13-.21-.19,0-.04,0-.08,0-.12,.95,.29,1.9,.59,2.85,.88Z"/>
      <path class="cls-39" d="M269.55,74.13c.36-.23,.76-.06,1.14-.13,.87-.15,1.75-.23,2.63-.34,0,.02,.02,.05,.02,.07-.03,.05-.06,.08-.11,.1-.55,.1-1.11,.18-1.66,.25-.43,.02-.85,.14-1.28,.1-.25-.03-.5,.06-.74-.05Z"/>
      <path class="cls-18" d="M269.55,74.13c.25,0,.5,0,.76,.01,.03,.02,.04,.04,.03,.06-.01,.02-.02,.03-.03,.03,0,0,0,0,0,0-.19,0-.38,0-.57,.01-.22,.08-.45,.02-.68,.04-.49,0-.98,0-1.47,0-.54-.03-1.1,.09-1.62-.14,0-.03,0-.06,0-.09,1.19,.11,2.39,.14,3.59,.09Z"/>
      <path class="cls-21" d="M278.06,72.42c-.51,.44-1.13,.65-1.78,.77-.09,.05-.12,0-.14-.08,.1-.22,.36-.17,.51-.3,.47-.13,.94-.26,1.4-.39Z"/>
      <path class="cls-39" d="M276.65,72.81c-.08,.24-.33,.18-.49,.28-.33,.24-.74,.23-1.11,.34-.19,.02-.37,.11-.56,.12-.21,0-.41,.17-.64,.05-.02-.02-.03-.04-.05-.05,.94-.28,1.89-.56,2.86-.74Z"/>
      <path class="cls-52" d="M267.29,71.39c.17-.17,.38-.06,.57-.09,.57,0,1.13,0,1.7,0,.13,.01,.28-.04,.38,.09-.88,0-1.76,0-2.64,0Z"/>
      <path class="cls-34" d="M263.79,70.82c.15,0,.3,.01,.45,.02-.03,.08-.1,.08-.17,.08-.42,0-.83-.02-1.23-.19,.34-.18,.63,.03,.94,.09Z"/>
      <path class="cls-33" d="M259.37,69.86c.12,.15,.05,.34,.09,.5-.03,.19,.03,.4-.1,.57,0-.36,0-.72,0-1.07Z"/>
      <path class="cls-35" d="M261.53,70.44s.06-.06,.09-.09c.13,.02,.28-.03,.39,.14-.16-.02-.32-.07-.48-.05Z"/>
      <path class="cls-66" d="M277.1,70.07s-.05-.05-.08-.08c.13-.02,.26-.05,.4-.07-.07,.18-.21,.14-.32,.16Z"/>
      <path class="cls-68" d="M277.63,69.91c.09-.14,.2-.14,.36-.09-.13,.07-.22,.14-.36,.09Z"/>
      <path class="cls-59" d="M275.05,70.46c.15,0,.3-.01,.45-.02-.1,.14-.25,.08-.38,.1-.03-.03-.05-.05-.08-.08Z"/>
      <path class="cls-34" d="M275.5,70.45c.1-.13,.25-.08,.38-.1,.03,.03,.06,.06,.09,.09-.16,0-.31,0-.47,0Z"/>
      <path class="cls-39" d="M273.33,73.65c.13-.15,.31-.07,.47-.1,0,0,.01,.01,.01,.01-.11,.28-.29,.18-.47,.1h-.01Z"/>
      <path class="cls-47" d="M271.61,74.03c.57-.09,1.13-.18,1.7-.27,.23-.07,.45-.09,.68,0-.58,.19-1.19,.21-1.79,.29-.2,.05-.39,.07-.59-.02Z"/>
      <path class="cls-17" d="M275.02,73.36c.38-.09,.76-.18,1.14-.27,.04,.03,.08,.07,.12,.1-.46,.19-.95,.28-1.44,.37-.04,.04-.08,.04-.12,0,0-.23,.25-.07,.3-.21Z"/>
      <path class="cls-15" d="M274.74,73.55s.06,0,.1,.01c-.27,.13-.57,.13-.85,.19-.23,0-.45,0-.68,0,.01-.03,.02-.06,.03-.09,.16-.02,.33,.03,.47-.1,.22-.03,.44-.06,.66-.09,.08,.07,.2-.02,.28,.07Z"/>
      <path class="cls-61" d="M271.61,74.03c.2,0,.39,.01,.59,.02-.63,.12-1.26,.21-1.9,.18,0-.03,0-.05,0-.08,.43-.04,.87-.07,1.3-.11Z"/>
      <path class="cls-49" d="M264.17,74.03c.1,0,.21,0,.29,.09-.06,.07-.15,.05-.23,.05-.21-.02-.43,.05-.63-.05-.16,.02-.31-.1-.46-.02-.39-.21-.86-.18-1.26-.4,0-.05,0-.1,.05-.13,.13-.1,.27-.08,.4-.03,.6,.21,1.24,.26,1.84,.48Z"/>
      <path class="cls-63" d="M261.06,73.56c-.25-.14-.57-.12-.77-.36,.02-.02,.03-.04,.05-.06,.35,0,.69,.1,1.02,.18,.13,.06,.27,.03,.4,.07,.12,.04,.25,.07,.15,.24h0c-.3,.16-.57-.03-.85-.09Z"/>
      <path class="cls-6" d="M261.06,73.56c.28,.03,.57,.07,.85,.1,.37,.25,.89,.12,1.24,.45-.69-.19-1.43-.22-2.08-.55Z"/>
      <path class="cls-63" d="M259.65,72.8c.16,.06,.31,.13,.47,.19,.04,.08,.23,.01,.19,.18,0,0-.02,.03-.02,.03-.27-.04-.48-.17-.64-.4Z"/>
      <path class="cls-11" d="M263.6,74.13c.22,0,.44,0,.66,0,.03,.02,.05,.04,.04,.06,0,.02-.02,.03-.03,.03-.22-.03-.46,.08-.66-.09Z"/>
      <path class="cls-51" d="M264.27,74.22s0-.06,0-.09c.07,0,.13,0,.2,0,.12,0,.25,0,.37,0,.03,.02,.04,.04,.03,.06,0,.02-.02,.03-.03,.03-.16,0-.32,0-.48,0-.03,0-.06,0-.09,0Z"/>
      <path class="cls-25" d="M264.83,74.22s0-.06,0-.09c.38,0,.76,0,1.13,0,.53,.04,1.07,.08,1.6,.11,.03,.02,.04,.03,.03,.05-.01,.02-.02,.03-.03,.03-.41,0-.82,0-1.23,0-.31-.13-.64,.03-.95-.09-.19,0-.38,0-.56,0Z"/>
      <path class="cls-62" d="M267.57,74.32s0-.05,0-.08c.5,0,1.01,0,1.51,0,.03,.02,.04,.03,.03,.05-.01,.02-.02,.02-.03,.02-.5,0-1.01,0-1.51,0Z"/>
      <path class="cls-51" d="M265.4,74.23c.31,.04,.65-.1,.95,.09-.16,0-.32,0-.47,0-.16-.02-.34,.06-.47-.09Z"/>
      <path class="cls-67" d="M269.08,74.32s0-.05,0-.07c.22,0,.44,0,.66,0-.17,.15-.38,.06-.56,.09-.03,0-.06,0-.1,0Z"/>
      <path class="cls-56" d="M265.78,50.04c-.03-.08-.09-.16,.03-.21,.02-.01,.04-.01,.06,0,1.02,.22,2.05,.26,3.09,.25,.57,0,1.15,.04,1.72-.03,.38-.04,.76-.07,1.13-.11,0,.06,0,.13,0,.19-.14,.13-.33,.14-.5,.19-.16,.04-.32,.03-.47,.04-.44-.03-.86,.11-1.3,.1-.31-.01-.61,0-.92,0-.5,.03-.98-.13-1.48-.09-.18-.02-.37,0-.55-.03-.18-.03-.35-.09-.54-.07-.18,.02-.22-.11-.28-.23Z"/>
      <path class="cls-43" d="M270.68,50.05s-.05,.05-.07,.05c-1.56,.04-3.13,.12-4.67-.2-.02,0-.04-.04-.06-.07,1.53,.2,3.06,.2,4.6,.19,.07,0,.14,.02,.21,.03Z"/>
      <path class="cls-43" d="M267,12.35c1.21,.04,2.42-.04,3.62-.18-1.19,.32-2.4,.37-3.62,.24,0-.02,0-.04,0-.06Z"/>
      <path class="cls-31" d="M267,12.35s0,.04,0,.06c-.36,.04-.71-.01-1.05-.15,.36-.07,.7,.08,1.05,.09Z"/>
      <path class="cls-43" d="M265.78,11.97c0-.5,0-1.01,0-1.51,.76,.13,1.51,.25,2.27,.38,.35,.08,.69,.08,1.04,0,.49-.09,.98-.18,1.46-.28,.03,0,.08-.01,.09,0,.2,.34,.15,.74,.23,1.11,.04,.18-.13,.26-.26,.28-1.34,.21-2.68,.47-4.04,.17-.26-.06-.52-.1-.78-.15Z"/>
      <path class="cls-38" d="M269.08,10.84c-.35,.15-.69,.15-1.04,0,.35,0,.69,0,1.04,0Z"/>
      <path class="cls-38" d="M268.14,10.66c.22,0,.43,0,.65,0-.22,.12-.43,.12-.65,0Z"/>
      <path class="cls-43" d="M271.34,50.23c.13-.16,.31-.07,.47-.09,0,.17-.01,.35,0,.52,.04,.36-.11,.53-.47,.52-.99,.24-2,.31-3.01,.32-.57,0-1.15-.07-1.72-.13q-.85,0-.85-.86c0-.15,0-.31,0-.46,.21,.25,.54-.02,.75,.19,.19,.08,.38,.08,.57,0,.51-.06,1,.13,1.51,.09,.31,.08,.63,.08,.94,0,.45,.03,.87-.16,1.32-.09,.16,.08,.31,.08,.47,0Z"/>
      <path class="cls-29" d="M266.62,51.36c.56,0,1.12,.06,1.67,.07,.86,.02,1.73-.07,2.59-.22,.15-.03,.31-.03,.46-.04-.51,.23-1.05,.28-1.61,.28-.66,.12-1.32,.09-1.98,.09-.35-.22-.78,.04-1.13-.19Z"/>
      <path class="cls-19" d="M261.91,73.65c-.07-.34-.44-.05-.57-.27,.16-.07,.31-.07,.47,0,.06,0,.13,0,.19,0,.52,.12,1.04,.25,1.56,.37,.23,.05,.44,.13,.62,.29-.58-.02-1.14-.15-1.68-.36-.18-.07-.38-.17-.58-.03Z"/>
      <path class="cls-30" d="M261.81,73.37c-.16,0-.32,0-.47,0-.34-.07-.69-.13-1.03-.2-.06-.06-.13-.12-.19-.18,.57,.09,1.14,.19,1.7,.38Z"/>
      <path class="cls-78" d="M274.74,73.55c-.1,0-.2,.03-.28-.07,.19-.04,.37-.08,.56-.13-.04,.14-.22,.08-.28,.2Z"/>
      <path class="cls-43" d="M269.55,50.32c-.31,.15-.63,.15-.94,0,.31,0,.63,0,.94,0Z"/>
      <path class="cls-43" d="M267.1,50.23c-.19,.14-.38,.14-.57,0,.19,0,.38,0,.57,0Z"/>
      <path class="cls-43" d="M271.34,50.23c-.16,.14-.31,.14-.47,0,.16,0,.31,0,.47,0Z"/>
      <path class="cls-9" d="M271.63,37.73c-.21-8.02-.41-16.04-.62-24.06-.01-.5-.05-1-.08-1.5-.11-.12-.25-.11-.4-.09-1.15,.31-2.32,.22-3.48,.23-.39,.02-.75-.1-1.13-.14-.06,0-.12,0-.17,.03-.2,.12-.12,.31-.12,.47,0,12.23,0,24.45,0,36.68,0,.17-.03,.35,.08,.5,.04,.05,.09,.08,.15,.1,1.51,.24,3.03,.26,4.56,.2,.19-.06,.39-.07,.59-.08,.32-.02,.65-.04,.89-.3,0-.14,.03-.28,.02-.42-.1-3.87-.19-7.74-.29-11.61Zm-3.33-23.67c.48-.02,.89,.42,.9,.96,0,.53-.39,1-.86,1.01-.47,.01-.88-.45-.88-.98,0-.51,.38-.96,.83-.98Zm.03,4.69c.47,0,.85,.43,.85,.96s-.38,.96-.85,.96-.85-.43-.85-.96,.38-.96,.85-.96Zm0,4.66c.47,0,.85,.43,.85,.96s-.38,.96-.85,.96-.85-.43-.85-.96,.38-.96,.85-.96Zm.14,5.55c.46,0,.88,.46,.88,.99,0,.54-.4,.98-.88,.98-.46,0-.85-.44-.86-.95-.01-.52,.4-1,.86-1.01Zm.13,5.77c.47,0,.85,.43,.85,.96s-.38,.96-.85,.96-.85-.43-.85-.96,.38-.96,.85-.96Zm.16,9.26c-.47,0-.85-.51-.85-1.14s.38-1.14,.85-1.14,.85,.51,.85,1.14-.38,1.14-.85,1.14Z"/>
    </g>
  </g>
</svg>